:SAMPLES-PER-SECOND 30
:FULLY-SPECIFIED
:DEGREES
659
root  -84.9385 40.69 0.383697 140.188 83.9247 138.397
RightUpLeg  1.24303 -7.16956 -8.99078
RightLeg  22.0543 -1.28537 -0.787885
RightFoot  -12.5208 -0.00907001 7.55364
RightToes  -3.31784e-009 0 -3.6325e-017
Spine  9.15058 2.90383 1.81842
Spine1  0.732903 4.85067 -10.0268
HEad  -8.2719 -23.6607 -9.13989
LeftShoulder1  -0.830579 5.56973 -34.0287
LeftArm  -8.67778 23.4441 -36.3381
LeftForeArm  30.9171 -9.39271 -5.66522
LeftHand  -0.0135308 3.03429 0.325726
RightShoulder  -1.15132 -6.67871 29.7511
RightArm  11.4758 3.37137 46.3034
RightForeArm  10.7541 34.3841 7.0685
RightHand  -0.381194 5.76321 -4.2846
LeftUpLeg  -5.14524 5.15239 -4.04538
LeftLeg  6.08791 15.101 -0.554857
LeftFoot  -0.940412 -0.396171 4.40635
LeftToes  1.28511e-009 -3.60458e-011 6.16399e-011
660
root  -84.9222 40.6464 0.438115 135.426 84.504 133.246
RightUpLeg  -0.521783 -4.15145 -8.88001
RightLeg  23.3476 -0.0590423 -0.248217
RightFoot  -13.62 0.0326106 6.25186
RightToes  -3.31784e-009 0 -3.6325e-017
Spine  9.22435 2.92426 1.44972
Spine1  0.454296 4.84626 -10.2718
HEad  -8.46101 -22.7759 -8.93561
LeftShoulder1  -0.735624 5.34494 -33.7707
LeftArm  -7.08958 22.4924 -37.6077
LeftForeArm  29.651 -11.523 -6.08757
LeftHand  -0.055428 7.52146 -0.221773
RightShoulder  -1.15337 -6.65971 30.0161
RightArm  13.0389 3.18202 47.7192
RightForeArm  11.7455 34.7783 7.11951
RightHand  -0.438154 5.64069 -4.92542
LeftUpLeg  -5.83001 5.39464 -3.87235
LeftLeg  6.8618 15.59 -0.402204
LeftFoot  -1.43626 -0.327083 3.87596
LeftToes  1.28511e-009 -3.60458e-011 6.16399e-011
661
root  -84.9435 40.6931 0.504895 135.504 84.9518 133.179
RightUpLeg  -1.46564 -3.56191 -8.75285
RightLeg  22.5838 0.0458943 -0.188782
RightFoot  -14.64 0.0732805 5.97227
RightToes  -3.31784e-009 0 -3.6325e-017
Spine  9.81298 2.69531 1.77913
Spine1  0.036878 4.68736 -10.5848
HEad  -8.59351 -22.4964 -8.60406
LeftShoulder1  -0.637582 5.12634 -33.1523
LeftArm  -6.98376 20.4654 -39.0494
LeftForeArm  29.2826 -12.7047 -5.72286
LeftHand  -0.119297 8.48855 -2.68804
RightShoulder  -1.2668 -6.91345 30.6587
RightArm  16.0246 3.66615 48.9209
RightForeArm  10.95 32.7342 6.62139
RightHand  -0.465127 5.63968 -5.21657
LeftUpLeg  -5.8608 5.52378 -3.41172
LeftLeg  6.56355 15.4673 -0.42524
LeftFoot  -1.15247 -0.330058 3.77834
LeftToes  1.28511e-009 -3.60458e-011 6.16399e-011
662
root  -84.9553 40.7482 0.629499 136.647 85.6694 134.259
RightUpLeg  -2.27359 -3.86478 -8.18022
RightLeg  20.7617 -1.42677 -0.80595
RightFoot  -15.5256 0.111658 5.94351
RightToes  -3.31784e-009 0 -3.6325e-017
Spine  10.3761 2.60543 1.64194
Spine1  -0.346667 4.39844 -9.54285
HEad  -9.0907 -21.6056 -8.67975
LeftShoulder1  -0.662289 5.17396 -33.4764
LeftArm  -3.67847 18.4218 -39.2032
LeftForeArm  26.1327 -15.5532 -5.51277
LeftHand  -0.0842371 7.65667 -2.01185
RightShoulder  -1.19012 -6.71357 30.5557
RightArm  18.6903 2.97415 49.7077
RightForeArm  10.3197 30.3887 6.06596
RightHand  -0.437725 6.22339 -4.70436
LeftUpLeg  -5.72025 5.97036 -2.56179
LeftLeg  6.15523 15.71 -0.527176
LeftFoot  -1.11945 -0.283861 3.24758
LeftToes  1.28511e-009 -3.60458e-011 6.16399e-011
663
root  -84.9316 40.7865 0.721706 138.425 85.7223 135.889
RightUpLeg  -3.42602 -4.71315 -7.8949
RightLeg  19.0321 -3.44414 -1.52855
RightFoot  -15.5228 0.0947041 5.49051
RightToes  -3.31784e-009 0 -3.6325e-017
Spine  10.1106 2.14998 1.37933
Spine1  0.284742 3.8047 -8.4637
HEad  -9.49337 -20.8845 -8.87304
LeftShoulder1  -0.784177 5.4672 -33.7697
LeftArm  -1.87266 15.9778 -39.5562
LeftForeArm  23.5222 -18.498 -4.6661
LeftHand  -0.0618023 7.17038 -1.47953
RightShoulder  -1.12968 -6.57641 30.2342
RightArm  22.0558 2.39821 50.5252
RightForeArm  9.97154 27.4878 5.38855
RightHand  -0.369505 5.52408 -4.2265
LeftUpLeg  -5.61895 5.75311 -2.42311
LeftLeg  5.56877 15.6144 -0.42137
LeftFoot  -0.701909 -0.304384 3.31512
LeftToes  1.28511e-009 -3.60458e-011 6.16399e-011
664
root  -84.9097 40.839 0.863562 138.703 85.9474 136.171
RightUpLeg  -4.2794 -6.48465 -7.36541
RightLeg  16.3411 -4.19909 -1.60515
RightFoot  -14.0098 0.0221426 5.19096
RightToes  -3.31784e-009 0 -3.6325e-017
Spine  10.6468 1.93671 1.07138
Spine1  -0.224856 3.36402 -7.35127
HEad  -9.61481 -20.1863 -8.96438
LeftShoulder1  -0.71081 5.29299 -33.5658
LeftArm  0.579378 14.9903 -39.3594
LeftForeArm  20.8226 -23.3806 -3.94815
LeftHand  -0.0584187 8.04762 -0.559242
RightShoulder  -1.19503 -6.70138 30.8546
RightArm  25.6507 1.38399 49.8383
RightForeArm  8.76903 24.323 4.76341
RightHand  -0.250474 4.72954 -3.26813
LeftUpLeg  -5.25311 5.76393 -2.06057
LeftLeg  4.86398 15.7443 -0.454869
LeftFoot  -0.387906 -0.277772 2.92124
LeftToes  1.28511e-009 -3.60458e-011 6.16399e-011
665
root  -84.912 40.8992 1.03906 138.478 86.288 135.747
RightUpLeg  -5.67045 -8.96571 -6.42157
RightLeg  14.2313 -3.949 -1.31355
RightFoot  -10.4669 -0.0656316 3.06412
RightToes  -3.31784e-009 0 -3.6325e-017
Spine  10.2527 1.67427 0.956283
Spine1  0.509482 2.93306 -6.10601
HEad  -10.7118 -18.7653 -8.90657
LeftShoulder1  -0.748252 5.3948 -33.4025
LeftArm  -1.75747 13.4882 -39.1481
LeftForeArm  22.4353 -27.4732 -4.69075
LeftHand  -0.0390822 6.89127 0.0156305
RightShoulder  -1.09322 -6.44964 30.575
RightArm  26.3717 -0.125629 49.5851
RightForeArm  8.38964 21.323 4.64982
RightHand  -0.275347 3.08805 -4.19199
LeftUpLeg  -5.13999 5.76635 -1.60066
LeftLeg  4.13556 16.0937 -0.468794
LeftFoot  0.0183913 -0.253933 2.55267
LeftToes  1.28511e-009 -3.60458e-011 6.16399e-011
666
root  -84.8868 40.9728 1.25862 128.472 87.0831 126.133
RightUpLeg  -6.86064 -9.25874 -5.4019
RightLeg  15.166 -5.46832 -1.79165
RightFoot  -7.01743 -0.0246848 -0.924795
RightToes  -3.31784e-009 0 -3.6325e-017
Spine  11.0676 1.78322 0.842579
Spine1  0.353897 2.83497 -4.91606
HEad  -10.6091 -17.4701 -9.23694
LeftShoulder1  -0.722139 5.33116 -33.3561
LeftArm  -3.84024 12.8453 -38.2085
LeftForeArm  23.3881 -32.1215 -5.75146
LeftHand  -0.0126174 6.54602 1.30302
RightShoulder  -1.09852 -6.45581 30.6711
RightArm  24.0724 -1.65731 48.3767
RightForeArm  11.1591 17.9231 5.4553
RightHand  -0.0789683 5.90732 -1.07019
LeftUpLeg  -4.16735 6.07066 -0.934993
LeftLeg  3.24142 16.7113 -0.702001
LeftFoot  0.500857 -0.243096 2.31216
LeftToes  1.28511e-009 -3.60458e-011 6.16399e-011
667
root  -84.7623 40.9297 1.46675 121.887 86.708 120.066
RightUpLeg  -6.39691 -9.54553 -5.54494
RightLeg  15.7862 -7.01051 -2.36421
RightFoot  -7.81888 -0.0814532 0.900743
RightToes  -3.31784e-009 0 -3.6325e-017
Spine  10.5209 1.39784 0.506854
Spine1  1.59349 2.37316 -4.55472
HEad  -10.107 -16.6556 -9.35231
LeftShoulder1  -0.685404 5.24073 -33.3258
LeftArm  -5.48669 12.4047 -37.1056
LeftForeArm  23.2728 -36.7756 -6.961
LeftHand  0.0508768 8.73677 3.36085
RightShoulder  -1.17194 -6.61928 31.0921
RightArm  20.385 -2.79181 47.0935
RightForeArm  15.0449 14.4988 6.42982
RightHand  -0.0189268 4.3263 -0.499322
LeftUpLeg  -3.62223 6.03026 -1.08704
LeftLeg  3.75313 16.7555 -0.417403
LeftFoot  0.211139 -0.197631 1.94226
LeftToes  1.28511e-009 -3.60458e-011 6.16399e-011
668
root  -84.5895 40.9481 1.63779 114.634 86.5571 113.473
RightUpLeg  -4.93641 -10.2987 -5.97493
RightLeg  14.8836 -5.68252 -1.74026
RightFoot  -7.99405 -0.066784 0.437941
RightToes  -3.31784e-009 0 -3.6325e-017
Spine  9.59448 0.753356 1.04882
Spine1  3.36463 1.84082 -4.72197
HEad  -9.72707 -15.3929 -9.60611
LeftShoulder1  -0.798797 5.5575 -32.7257
LeftArm  -8.05444 11.8037 -36.8821
LeftForeArm  24.5028 -39.7974 -7.76449
LeftHand  0.0423278 8.09324 3.41052
RightShoulder  -1.19862 -6.68639 31.1413
RightArm  16.423 -3.68843 46.3064
RightForeArm  19.243 11.3197 6.85166
RightHand  0.044541 4.29925 0.258923
LeftUpLeg  -2.32681 6.05975 -1.05284
LeftLeg  3.21643 16.9957 -0.522045
LeftFoot  0.266052 -0.170779 1.6651
LeftToes  1.28511e-009 -3.60458e-011 6.16399e-011
669
root  -84.3904 40.9602 1.84758 110.066 86.4016 109.112
RightUpLeg  -3.81047 -11.1467 -6.25168
RightLeg  13.8833 -4.50787 -1.09199
RightFoot  -8.45644 -0.0735418 0.63882
RightToes  -3.31784e-009 0 -3.6325e-017
Spine  9.13183 0.65749 1.50009
Spine1  3.15585 1.65898 -4.21042
HEad  -7.72447 -14.613 -10.4721
LeftShoulder1  -0.777343 5.48196 -33.1201
LeftArm  -8.56602 11.7603 -35.757
LeftForeArm  25.0647 -42.1044 -8.45109
LeftHand  0.00934079 6.76236 3.48089
RightShoulder  -1.20959 -6.71334 31.166
RightArm  13.0152 -5.74548 44.3981
RightForeArm  21.0668 8.58211 6.57789
RightHand  0.0490397 3.91187 0.209213
LeftUpLeg  -1.70578 6.14355 -0.840435
LeftLeg  3.17062 17.0063 -0.576583
LeftFoot  0.0860548 -0.130106 1.29319
LeftToes  1.28511e-009 -3.60458e-011 6.16399e-011
670
root  -84.2169 40.988 2.05978 92.7085 86.85 92.2093
RightUpLeg  -2.52828 -10.974 -6.01348
RightLeg  12.6629 -3.73571 -0.458533
RightFoot  -8.4403 -0.0638892 0.275484
RightToes  -3.31784e-009 0 -3.6325e-017
Spine  9.87315 1.00697 2.21718
Spine1  2.09244 1.87093 -3.3026
HEad  -6.32194 -13.7081 -11.2647
LeftShoulder1  -0.884219 5.72079 -33.7176
LeftArm  -9.55572 11.7982 -35.36
LeftForeArm  24.8192 -43.4535 -8.91774
LeftHand  0.0399568 7.2008 4.62416
RightShoulder  -1.27694 -6.87552 31.3649
RightArm  12.3063 -7.76666 41.7933
RightForeArm  21.1193 7.51311 6.19516
RightHand  -0.0454768 -0.98296 -0.329402
LeftUpLeg  -0.930441 6.64357 0.0286445
LeftLeg  3.55211 17.4598 -0.691892
LeftFoot  -0.467589 -0.0636834 0.701749
LeftToes  1.28511e-009 -3.60458e-011 6.16399e-011
